<svg width="21" height="21" viewBox="0 0 21 21" fill="none" xmlns="http://www.w3.org/2000/svg">
<g opacity="0.2">
<path d="M16.8704 15.9419C16.9314 16.0029 16.9798 16.0753 17.0128 16.155C17.0458 16.2346 17.0627 16.32 17.0627 16.4062C17.0627 16.4925 17.0458 16.5779 17.0128 16.6575C16.9798 16.7372 16.9314 16.8096 16.8704 16.8705C16.8095 16.9315 16.7371 16.9799 16.6574 17.0129C16.5777 17.0459 16.4924 17.0629 16.4061 17.0629C16.3199 17.0629 16.2345 17.0459 16.1548 17.0129C16.0752 16.9799 16.0028 16.9315 15.9418 16.8705L10.4999 11.4278L5.05792 16.8705C4.93478 16.9937 4.76777 17.0629 4.59363 17.0629C4.41948 17.0629 4.25247 16.9937 4.12933 16.8705C4.00619 16.7474 3.93701 16.5804 3.93701 16.4062C3.93701 16.2321 4.00619 16.0651 4.12933 15.9419L9.5721 10.5L4.12933 5.05805C4.00619 4.93491 3.93701 4.76789 3.93701 4.59375C3.93701 4.4196 4.00619 4.25259 4.12933 4.12945C4.25247 4.00631 4.41948 3.93713 4.59363 3.93713C4.76777 3.93713 4.93478 4.00631 5.05792 4.12945L10.4999 9.57222L15.9418 4.12945C16.065 4.00631 16.232 3.93713 16.4061 3.93713C16.5803 3.93713 16.7473 4.00631 16.8704 4.12945C16.9936 4.25259 17.0627 4.4196 17.0627 4.59375C17.0627 4.76789 16.9936 4.93491 16.8704 5.05805L11.4276 10.5L16.8704 15.9419Z" fill="#1C1917"/>
</g>
</svg>
