<svg width="16" height="17" viewBox="0 0 16 17" fill="none" xmlns="http://www.w3.org/2000/svg">
<path d="M13.354 6.8428L8.35403 11.8428C8.30759 11.8893 8.25245 11.9262 8.19175 11.9513C8.13105 11.9765 8.06599 11.9894 8.00028 11.9894C7.93457 11.9894 7.86951 11.9765 7.80881 11.9513C7.74811 11.9262 7.69296 11.8893 7.64653 11.8428L2.64653 6.8428C2.55271 6.74898 2.5 6.62173 2.5 6.48905C2.5 6.35637 2.55271 6.22912 2.64653 6.1353C2.74035 6.04148 2.8676 5.98877 3.00028 5.98877C3.13296 5.98877 3.26021 6.04148 3.35403 6.1353L8.00028 10.7822L12.6465 6.1353C12.693 6.08884 12.7481 6.05199 12.8088 6.02685C12.8695 6.00171 12.9346 5.98877 13.0003 5.98877C13.066 5.98877 13.131 6.00171 13.1917 6.02685C13.2524 6.05199 13.3076 6.08884 13.354 6.1353C13.4005 6.18175 13.4373 6.2369 13.4625 6.2976C13.4876 6.3583 13.5006 6.42335 13.5006 6.48905C13.5006 6.55474 13.4876 6.6198 13.4625 6.6805C13.4373 6.74119 13.4005 6.79634 13.354 6.8428Z" fill="#EEF2FF"/>
</svg>
