<svg width="21" height="21" viewBox="0 0 21 21" fill="none" xmlns="http://www.w3.org/2000/svg">
<path d="M9.84375 17.7188C9.84375 17.8928 9.77461 18.0597 9.65154 18.1828C9.52847 18.3059 9.36155 18.375 9.1875 18.375H3.9375C3.76345 18.375 3.59653 18.3059 3.47346 18.1828C3.35039 18.0597 3.28125 17.8928 3.28125 17.7188V3.28125C3.28125 3.1072 3.35039 2.94028 3.47346 2.81721C3.59653 2.69414 3.76345 2.625 3.9375 2.625H9.1875C9.36155 2.625 9.52847 2.69414 9.65154 2.81721C9.77461 2.94028 9.84375 3.1072 9.84375 3.28125C9.84375 3.4553 9.77461 3.62222 9.65154 3.74529C9.52847 3.86836 9.36155 3.9375 9.1875 3.9375H4.59375V17.0625H9.1875C9.36155 17.0625 9.52847 17.1316 9.65154 17.2547C9.77461 17.3778 9.84375 17.5447 9.84375 17.7188ZM18.8393 10.0357L15.558 6.75445C15.4349 6.63131 15.2679 6.56214 15.0938 6.56214C14.9196 6.56214 14.7526 6.63131 14.6295 6.75445C14.5063 6.87759 14.4371 7.0446 14.4371 7.21875C14.4371 7.3929 14.5063 7.55991 14.6295 7.68305L16.791 9.84375H9.1875C9.01345 9.84375 8.84653 9.91289 8.72346 10.036C8.60039 10.159 8.53125 10.326 8.53125 10.5C8.53125 10.674 8.60039 10.841 8.72346 10.964C8.84653 11.0871 9.01345 11.1562 9.1875 11.1562H16.791L14.6295 13.317C14.5063 13.4401 14.4371 13.6071 14.4371 13.7812C14.4371 13.9554 14.5063 14.1224 14.6295 14.2455C14.7526 14.3687 14.9196 14.4379 15.0938 14.4379C15.2679 14.4379 15.4349 14.3687 15.558 14.2455L18.8393 10.9643C18.9003 10.9033 18.9487 10.831 18.9817 10.7513C19.0148 10.6716 19.0318 10.5862 19.0318 10.5C19.0318 10.4138 19.0148 10.3284 18.9817 10.2487C18.9487 10.169 18.9003 10.0967 18.8393 10.0357Z" fill="#EEF2FF"/>
</svg>
