<svg width="108" height="50" viewBox="0 0 108 50" fill="none" xmlns="http://www.w3.org/2000/svg">
<path d="M23.9746 7.93456C23.9356 7.94432 23.7061 7.9785 23.4619 8.0078C23.0225 8.06639 22.6758 8.14452 22.2656 8.28612C21.9531 8.39354 21.001 8.85741 20.8203 8.99413C19.9512 9.63378 19.6631 9.90233 19.1895 10.5176C18.6768 11.1865 17.9199 12.4951 17.9199 12.7148C17.9199 12.7881 18.0225 12.8418 18.1592 12.8418C18.2031 12.8418 18.5059 12.9297 18.8281 13.0371C19.1455 13.1494 19.4824 13.2568 19.5703 13.2861C19.6533 13.3105 19.7266 13.3496 19.7266 13.374C19.7266 13.3935 19.7559 13.4131 19.79 13.4131C19.8193 13.4131 19.9902 13.4814 20.166 13.5596C21.0547 13.9697 21.2402 14.0185 21.2402 13.8476C21.2402 13.75 21.8067 13.0078 22.1143 12.7002C22.4561 12.3584 22.8516 12.0898 23.2031 11.9531C24.0234 11.6357 25.0684 11.7041 25.7959 12.1191C25.9229 12.1973 26.0449 12.2558 26.0645 12.2558C26.1426 12.2558 26.8164 12.959 26.9971 13.2226C27.4609 13.9062 27.666 14.4238 27.8809 15.4297C27.9639 15.8252 28.0713 17.0849 28.0713 17.6758C28.0713 18.2715 27.9688 19.3457 27.8613 19.873C27.6953 20.6738 27.6709 20.791 27.583 21.1865C27.5342 21.4111 27.4756 21.6162 27.4463 21.6455C27.3926 21.6992 27.2559 21.4502 27.1045 21.001C27.0459 20.8301 26.9531 20.6006 26.8994 20.4883C26.7432 20.1807 26.2695 19.4287 26.1133 19.248C26.04 19.1601 25.9766 19.0674 25.9766 19.0381C25.9766 18.9062 23.9893 16.9922 23.8477 16.9922C23.8379 16.9922 23.7647 16.9385 23.6914 16.8701C23.6182 16.8017 23.54 16.748 23.5205 16.748C23.4961 16.748 23.3545 16.6504 23.2031 16.5381C22.8955 16.2988 22.1875 15.8447 21.9727 15.7422C21.9336 15.7226 21.8115 15.6494 21.7041 15.581C21.4795 15.4394 20.8887 15.1367 20.8399 15.1367C20.8203 15.1367 20.669 15.0732 20.4981 14.9951C20.3272 14.9219 20.1025 14.8242 19.9951 14.7803C19.8877 14.7412 19.7119 14.6728 19.6045 14.6338C19.0576 14.4287 18.5693 14.2578 18.5156 14.2578C18.4815 14.2578 18.2227 14.1894 17.9297 14.1113C16.4209 13.6816 16.294 13.6621 14.9024 13.6621L13.6475 13.6572L13.0176 13.833C12.6758 13.9307 12.3682 14.0283 12.334 14.0527C12.3047 14.0723 12.1924 14.1211 12.085 14.1553C11.7871 14.2578 11.3672 14.458 11.2012 14.5849C11.1182 14.6484 11.0352 14.6973 11.0156 14.6973C10.9131 14.6973 10.3076 15.1904 10.0049 15.5224C9.31153 16.2695 8.78907 17.3096 8.49122 18.5303C8.4131 18.8672 8.37892 20.4053 8.44239 20.8008C8.55958 21.5234 8.59376 21.6748 8.75489 22.124C9.07716 23.0224 9.51661 23.7891 10.166 24.6045C10.6543 25.2148 10.5957 25.2051 11.1084 24.7217C11.3525 24.4971 11.6016 24.2724 11.6699 24.2285C11.7383 24.1846 12.0752 23.9209 12.417 23.6426C12.7637 23.3594 13.1543 23.0615 13.2861 22.9736L13.5303 22.8125L13.1983 22.417C12.5879 21.6894 12.4561 21.4697 12.251 20.8252C12.1289 20.4297 12.1192 19.4922 12.2412 19.126C12.4805 18.3838 12.9785 17.8808 13.7305 17.6269C14.0381 17.5244 14.1211 17.5195 15.083 17.5391C15.8106 17.5488 16.1279 17.5732 16.1719 17.6172C16.2012 17.6465 16.294 17.6758 16.3672 17.6758C16.5088 17.6758 17.2315 17.8418 17.4072 17.9199C17.4609 17.9394 17.6465 18.0078 17.8223 18.0664C17.9981 18.125 18.1641 18.1933 18.1885 18.2129C18.2178 18.2324 18.3057 18.2617 18.3838 18.2812C18.5742 18.3252 20.2149 19.1357 20.5322 19.3408C20.7568 19.4873 21.3037 19.8486 21.5527 20.0195C21.7334 20.1465 22.4365 20.6738 22.4609 20.7031C22.4756 20.7178 22.7149 20.9277 22.9981 21.1621C23.2813 21.4014 23.5205 21.6162 23.5303 21.6406C23.5352 21.665 23.5059 21.7139 23.457 21.748C23.3887 21.8017 23.1152 21.8066 22.1973 21.7871C21.2402 21.7676 20.9424 21.7822 20.6006 21.8457C20.3711 21.8896 20.083 21.9238 19.9561 21.9238C19.834 21.9238 19.6729 21.9482 19.5947 21.9775C19.5215 22.0068 19.3262 22.0459 19.165 22.0703C18.7451 22.1338 18.2373 22.2412 17.8955 22.3389C17.7344 22.3828 17.5391 22.4365 17.4561 22.4609C17.2363 22.5146 16.7432 22.6855 16.3184 22.8564C15.5274 23.1689 13.7061 24.1846 13.2959 24.5459C13.1934 24.6338 13.0908 24.707 13.0664 24.707C13.042 24.707 12.9395 24.7803 12.8418 24.8633C12.7393 24.9512 12.5537 25.0976 12.4317 25.1904C11.9873 25.5127 10.5811 26.9726 10.249 27.4512C9.36036 28.7256 9.08204 29.2871 8.64259 30.6933C8.42286 31.3867 8.42286 33.2764 8.64259 33.9599C9.17482 35.6152 9.81935 36.4844 11.2549 37.4805C11.6992 37.7881 12.7881 38.2226 13.4033 38.3349C14.0527 38.457 14.5361 38.4863 15.4297 38.4619C16.4404 38.4375 16.5772 38.4131 16.5283 38.2861C16.5137 38.2471 16.4551 38.0469 16.3965 37.8418C16.1475 36.9238 16.0205 36.3525 15.9668 35.9521C15.9424 35.7715 15.8984 35.4199 15.8643 35.1709L15.8057 34.7217L14.9463 34.7021C14.0332 34.6875 13.9551 34.6728 13.5108 34.4092C13.0518 34.1357 12.4512 33.4326 12.4512 33.164C12.4512 33.1201 12.417 33.0176 12.3779 32.9394C12.2754 32.7441 12.2754 31.7529 12.3779 31.5088C12.417 31.416 12.4512 31.2988 12.4512 31.25C12.4512 31.2012 12.4854 31.0986 12.5244 31.0254C12.5635 30.9473 12.5977 30.8496 12.5977 30.8105C12.5977 30.7666 12.6221 30.708 12.6514 30.6787C12.6807 30.6494 12.7295 30.581 12.7637 30.5273C13.1787 29.7998 14.2334 28.6963 15.0684 28.1006C16.0645 27.3926 16.7578 27.0068 17.7344 26.6162C18.833 26.1767 19.7315 25.9277 19.8486 26.0254C19.9121 26.0791 19.8877 26.3183 19.8242 26.3183C19.8047 26.3183 19.7022 26.4453 19.5996 26.5967C19.4922 26.7529 19.2578 27.0996 19.0674 27.373C18.8818 27.6416 18.6963 27.915 18.6572 27.9834C18.2959 28.5937 18.169 28.8476 17.9395 29.4092C17.793 29.7607 17.6758 30.0879 17.6758 30.1318C17.6758 30.1758 17.6416 30.293 17.6025 30.3857C17.5635 30.4834 17.5293 30.625 17.5293 30.7031C17.5293 30.7764 17.5098 30.8594 17.4805 30.8887C17.4365 30.9326 17.3975 31.1182 17.2608 32.0068C17.2217 32.2461 17.168 32.5781 17.1436 32.7392C17.0752 33.1055 17.0801 35.293 17.1436 35.6201C17.1729 35.7519 17.2119 35.9961 17.2315 36.1572C17.2852 36.5137 17.3633 36.8457 17.6318 37.793C18.1152 39.5166 19.2529 41.3769 20.4199 42.3437C21.2988 43.081 22.0361 43.4424 23.0957 43.667C23.5156 43.7598 24.6045 43.8623 24.7119 43.8281C24.751 43.8135 25.0244 43.7793 25.3174 43.7549C26.0303 43.6914 26.5918 43.5498 27.1143 43.3008C27.2656 43.2226 27.4121 43.164 27.4365 43.164C27.4561 43.164 27.7051 43.0127 27.9834 42.8271C28.9942 42.1582 29.8975 41.1523 30.4199 40.1123C30.5127 39.9219 30.6006 39.7607 30.6152 39.7461C30.6738 39.6875 30.8106 39.4531 30.8106 39.4043C30.8106 39.375 30.752 39.331 30.6787 39.3017C30.6006 39.2773 30.4785 39.2236 30.3955 39.1894C30.3174 39.1504 30.127 39.082 29.9805 39.0381C29.834 38.9892 29.668 38.9209 29.6143 38.8818C29.5606 38.8476 29.4775 38.8183 29.4336 38.8183C29.3848 38.8183 29.3067 38.7988 29.2578 38.7744C29.2139 38.75 29.0772 38.6865 28.9551 38.6328C28.833 38.5791 28.4961 38.418 28.2031 38.2764C27.6221 37.998 27.5781 37.998 27.4365 38.2715C27.3926 38.3545 27.2998 38.501 27.2266 38.5937C27.1582 38.6865 27.0996 38.7744 27.0996 38.789C27.0996 38.8281 26.9092 39.0576 26.7236 39.2383C26.5283 39.4336 25.9326 39.7949 25.625 39.9121C25.3418 40.0146 24.5313 40.1025 24.1943 40.0635C23.4424 39.9707 22.5928 39.4385 22.1387 38.7695C21.8457 38.3398 21.7822 38.2373 21.6162 37.9248C21.5137 37.7441 21.4356 37.5635 21.4356 37.5293C21.4356 37.4902 21.4063 37.3535 21.3672 37.2265C21.3281 37.0947 21.2744 36.8652 21.2451 36.7187C21.2158 36.5723 21.1572 36.2939 21.1182 36.1084C21.0742 35.918 21.0205 35.5469 20.9961 35.2783C20.9717 35.0098 20.9277 34.5996 20.9033 34.3701C20.874 34.0918 20.874 33.7353 20.9082 33.3447C20.9326 33.0127 20.9717 32.5098 20.9961 32.2265C21.0596 31.3525 21.2256 30.5322 21.3623 30.4199C21.4258 30.3662 21.4551 30.4004 21.5576 30.6348C21.626 30.7861 21.6797 30.9424 21.6797 30.9863C21.6797 31.2305 22.3828 32.4267 22.9395 33.125C23.3447 33.6377 24.1943 34.4922 24.6045 34.8047C25.1074 35.1904 25.7324 35.6445 25.7617 35.6445C25.8008 35.6445 26.0986 35.8594 26.1133 35.8984C26.1231 35.9228 26.1524 35.9375 26.1817 35.9375C26.2061 35.9375 26.2891 35.9765 26.3574 36.0303C26.4307 36.0791 26.6748 36.2158 26.9043 36.333C27.1338 36.4453 27.3535 36.5674 27.3926 36.5967C27.4951 36.6748 29.043 37.3584 29.2236 37.4072C29.3067 37.4267 29.5899 37.5244 29.8584 37.6221C31.0693 38.0664 31.9287 38.2568 33.0567 38.3398C33.9014 38.3984 34.9658 38.3496 35.4785 38.2275C37.544 37.7441 39.0576 36.6064 39.8731 34.9316C40.0879 34.4873 40.1611 34.2871 40.332 33.667C40.415 33.3789 40.4297 33.1592 40.4297 32.2217C40.4297 31.0937 40.4248 31.0596 40.21 30.3662C40.1709 30.2392 40.1367 30.1123 40.1367 30.0781C40.1367 30.0098 39.7168 29.1406 39.5215 28.8135C39.419 28.6328 39.1895 28.3105 39.0234 28.1006C39.0039 28.0713 38.9307 27.9639 38.8672 27.8564C38.8037 27.749 38.7354 27.6514 38.7207 27.6367C38.6572 27.583 38.335 27.168 38.3252 27.124C38.3008 27.0557 38.169 26.9043 38.1299 26.9043C38.1152 26.9043 38.0371 26.9971 37.959 27.1094C37.8809 27.2217 37.7295 27.3926 37.627 27.4902C37.5195 27.583 37.3535 27.7392 37.2608 27.832C37.1631 27.9297 36.9336 28.1299 36.7432 28.2764C36.5576 28.4277 36.3721 28.584 36.333 28.6279C36.2988 28.6767 36.2402 28.7109 36.2061 28.7109C36.1768 28.7109 36.0205 28.8232 35.8643 28.9599C35.708 29.0918 35.5322 29.2383 35.4688 29.2822C35.4053 29.3213 35.3516 29.375 35.3516 29.3945C35.3516 29.4189 35.459 29.541 35.5908 29.6631C35.7275 29.79 35.8692 29.9658 35.9131 30.0586C35.9522 30.1465 36.04 30.2832 36.0986 30.3564C36.2402 30.5322 36.4404 30.9131 36.5674 31.25C36.6504 31.4697 36.6699 31.6308 36.6699 32.1387C36.6699 32.4805 36.6504 32.7685 36.626 32.7881C36.6016 32.8027 36.5625 32.8857 36.5479 32.9736C36.4404 33.457 35.8838 34.082 35.3565 34.3066C34.7022 34.5849 33.4815 34.5898 32.3486 34.3262C31.5527 34.1406 31.0938 34.0137 30.8106 33.9111C30.3467 33.7402 30.127 33.6572 29.7217 33.4765C29.6192 33.4326 29.5117 33.3984 29.4824 33.3984C29.4043 33.3984 29.0186 33.1738 27.9492 32.5C27.2022 32.0312 26.4404 31.4648 25.7813 30.8887C25.3223 30.4883 25.1953 30.3662 25.1953 30.3223C25.1953 30.2441 25.4736 30.2246 26.8799 30.2197C27.6856 30.2197 28.5303 30.2002 28.7598 30.1758C29.7266 30.0732 30.1758 30 30.7617 29.834C30.8545 29.8047 31.1182 29.7314 31.3477 29.668C31.5772 29.6045 31.9043 29.5019 32.0801 29.4433C32.6953 29.2383 34.2188 28.5254 34.4238 28.3447C34.4629 28.3105 34.5752 28.2471 34.668 28.1982C34.9072 28.0762 35.2979 27.8174 35.8252 27.4316C36.3379 27.0557 37.8418 25.6103 38.2666 25.083C38.4229 24.8877 38.584 24.6924 38.6328 24.6435C38.9356 24.3066 39.6826 23.0127 39.8682 22.5098C39.9121 22.3877 39.9902 22.1924 40.0391 22.0703C40.0879 21.9482 40.166 21.709 40.21 21.5332C40.2539 21.3574 40.3125 21.1377 40.3369 21.0449C40.4346 20.6787 40.4981 19.4385 40.4395 18.8769C40.4102 18.5742 40.3662 18.2764 40.3418 18.208C40.3174 18.1445 40.2588 17.959 40.21 17.7978C40.166 17.6367 40.083 17.4267 40.0342 17.3291C39.9805 17.2314 39.9414 17.1142 39.9414 17.0752C39.9414 17.0361 39.9268 16.9922 39.9072 16.9824C39.8828 16.9726 39.8242 16.8799 39.7754 16.7724C39.3945 15.9814 38.4961 15.0293 37.6514 14.5215C37.2412 14.2676 36.7774 14.0283 36.5967 13.9697C36.5186 13.9404 36.3184 13.8721 36.1572 13.8135C35.5176 13.584 34.6826 13.4814 33.418 13.4814C32.5147 13.4766 32.4854 13.4863 32.5635 13.7988C32.5928 13.9062 32.6367 14.0967 32.666 14.2334C32.6953 14.3652 32.7393 14.541 32.7637 14.624C32.7881 14.7021 32.832 14.917 32.8565 15.0976C32.8809 15.2783 32.915 15.4492 32.9297 15.4736C32.9443 15.498 32.9834 15.791 33.0127 16.123C33.0469 16.4502 33.0811 16.8457 33.1006 16.9922L33.1299 17.2558L33.7402 17.2607C34.5166 17.2705 34.9561 17.373 35.4346 17.6611C36.0547 18.0371 36.3818 18.5205 36.5772 19.3408C36.6846 19.79 36.6846 19.7998 36.6016 20.2392C36.3916 21.3183 35.835 22.2363 34.7559 23.2666C34.0186 23.9697 33.6231 24.2773 32.9102 24.7021C32.627 24.8682 32.3633 25.0244 32.3242 25.0488C32.2217 25.1123 31.5088 25.459 31.2744 25.5566C31.167 25.6006 31.04 25.6592 30.9961 25.6836C30.9473 25.7129 30.8789 25.7324 30.8399 25.7324C30.8008 25.7324 30.708 25.7568 30.6299 25.791C30.4492 25.8642 29.5996 26.0693 29.1162 26.1572C28.8428 26.2012 28.8574 25.9863 29.1406 25.6885C29.3115 25.5127 29.5313 25.2148 29.6582 24.9756C29.7315 24.8389 29.834 24.6875 29.8779 24.6338C29.9268 24.5801 29.9805 24.5019 30 24.4629C30.0195 24.4238 30.0586 24.3457 30.0928 24.292C30.293 23.9599 30.542 23.501 30.5518 23.4277C30.5567 23.3838 30.6055 23.2764 30.6592 23.1836C30.708 23.0957 30.8447 22.7783 30.957 22.4853C31.0693 22.1875 31.1914 21.8799 31.2256 21.8017C31.2598 21.7187 31.3037 21.6016 31.3184 21.5332C31.3721 21.2744 31.46 20.9668 31.5234 20.8105C31.5625 20.7226 31.5918 20.5908 31.5918 20.5224C31.5918 20.4541 31.6211 20.2832 31.6602 20.1465C31.8848 19.3457 31.9678 17.0849 31.8067 16.0498C31.6455 14.9658 31.377 13.8183 31.1377 13.1494C31.001 12.7783 30.5762 11.831 30.4932 11.7187C30.4639 11.6797 30.3906 11.5478 30.3223 11.4258C30.0244 10.8594 29.0576 9.76561 28.4375 9.2871C27.7686 8.76952 26.9922 8.38378 26.1231 8.13964C25.5762 7.98339 24.3311 7.8662 23.9746 7.93456ZM24.9756 22.3828C25.9229 22.5488 26.6797 22.9932 27.2559 23.7305C27.6611 24.248 27.9199 24.8096 28.0274 25.3906C28.0567 25.5664 28.0908 25.7519 28.1006 25.8057C28.1299 25.9521 27.9834 26.9482 27.8906 27.1973C27.5537 28.1348 26.8897 28.8379 25.8789 29.331C25.2979 29.6094 25.3076 29.6094 24.5117 29.6045C23.8623 29.6045 23.7061 29.5898 23.4424 29.4971C22.8662 29.2969 22.3389 28.9844 21.9336 28.5937C21.7041 28.3789 21.2891 27.7832 21.2891 27.6758C21.2891 27.6367 21.2598 27.5683 21.2207 27.5146C21.1524 27.4072 21.0449 27.0654 20.918 26.543C20.669 25.4932 21.1914 23.9844 22.0606 23.2568C22.6758 22.7344 23.3154 22.4365 23.9551 22.3682C24.5117 22.3096 24.5459 22.3096 24.9756 22.3828Z" fill="#334155"/>
<path d="M24.2285 23.7842C23.8672 23.8232 23.6328 23.8965 23.2471 24.0869C23.042 24.1894 22.583 24.7412 22.417 25.083C22.2559 25.4053 22.251 25.4345 22.251 26.001C22.2559 26.5283 22.2656 26.6162 22.3828 26.875C22.5879 27.3242 22.7686 27.5439 23.1689 27.8271C23.6035 28.1347 24.4092 28.291 24.9756 28.1738C25.5908 28.0517 26.2451 27.5488 26.5625 26.9531C26.7285 26.6455 26.7334 26.6211 26.7334 26.0742C26.7334 25.4101 26.6846 25.2636 26.2793 24.7168C26.0303 24.3799 25.5322 23.9746 25.3711 23.9746C25.3418 23.9746 25.293 23.9551 25.2686 23.9355C25.2246 23.8965 24.9023 23.7988 24.707 23.7597C24.668 23.75 24.4531 23.7646 24.2285 23.7842Z" fill="#334155"/>
<path d="M62.4239 21.8087C62.4239 23.8403 61.9095 25.4011 60.8806 26.491C59.8605 27.5722 58.3825 28.1128 56.4468 28.1128H55.5575V35.0447H52V15.9232H56.8523C60.5667 15.9232 62.4239 17.8851 62.4239 21.8087ZM55.5575 25.0262H56.2376C57.1095 25.0262 57.7591 24.7864 58.1863 24.3068C58.6136 23.8273 58.8272 23.0425 58.8272 21.9526C58.8272 20.9499 58.631 20.2087 58.2387 19.7292C57.8463 19.2409 57.2403 18.9968 56.4207 18.9968H55.5575V25.0262Z" fill="#334155"/>
<path d="M75.4244 27.7335C75.4244 30.1226 74.9187 31.9842 73.9073 33.3182C72.8958 34.6436 71.5095 35.3062 69.7482 35.3062C68.6321 35.3062 67.6468 35.0011 66.7923 34.3907C65.9378 33.7804 65.2795 32.9041 64.8174 31.7618C64.3553 30.6109 64.1242 29.2681 64.1242 27.7335C64.1242 25.3706 64.6256 23.5264 65.6283 22.2011C66.631 20.8671 68.0217 20.2 69.8005 20.2C71.5182 20.2 72.8827 20.8801 73.8942 22.2403C74.9143 23.5918 75.4244 25.4229 75.4244 27.7335ZM67.6817 27.7335C67.6817 29.2507 67.8473 30.3973 68.1787 31.1733C68.51 31.9493 69.0419 32.3373 69.7743 32.3373C71.1694 32.3373 71.8669 30.8027 71.8669 27.7335C71.8669 26.2076 71.6969 25.0698 71.3569 24.3199C71.0255 23.5613 70.498 23.182 69.7743 23.182C69.0419 23.182 68.51 23.5613 68.1787 24.3199C67.8473 25.0698 67.6817 26.2076 67.6817 27.7335Z" fill="#334155"/>
<path d="M81.3492 35.0447H77.8702V14.6938H81.3492V35.0447Z" fill="#334155"/>
<path d="M86.6069 35.0447L82.801 20.4747H86.4107L88.268 28.9106C88.3464 29.303 88.438 29.8785 88.5426 30.637C88.656 31.3869 88.7257 31.9275 88.7519 32.2588H88.8042C88.8129 31.9973 88.8478 31.6223 88.9088 31.134C88.9786 30.6458 89.0483 30.1967 89.1181 29.7869C89.1878 29.3771 89.8592 26.273 91.1323 20.4747H94.742L90.923 35.0447H86.6069Z" fill="#334155"/>
<path d="M107.023 27.7335C107.023 30.1226 106.517 31.9842 105.506 33.3182C104.495 34.6436 103.108 35.3062 101.347 35.3062C100.231 35.3062 99.2456 35.0011 98.3911 34.3907C97.5366 33.7804 96.8783 32.9041 96.4162 31.7618C95.954 30.6109 95.723 29.2681 95.723 27.7335C95.723 25.3706 96.2243 23.5264 97.2271 22.2011C98.2298 20.8671 99.6205 20.2 101.399 20.2C103.117 20.2 104.482 20.8801 105.493 22.2403C106.513 23.5918 107.023 25.4229 107.023 27.7335ZM99.2804 27.7335C99.2804 29.2507 99.4461 30.3973 99.7774 31.1733C100.109 31.9493 100.641 32.3373 101.373 32.3373C102.768 32.3373 103.466 30.8027 103.466 27.7335C103.466 26.2076 103.296 25.0698 102.956 24.3199C102.624 23.5613 102.097 23.182 101.373 23.182C100.641 23.182 100.109 23.5613 99.7774 24.3199C99.4461 25.0698 99.2804 26.2076 99.2804 27.7335Z" fill="#334155"/>
</svg>
