<svg width="19" height="18" viewBox="0 0 19 18" fill="none" xmlns="http://www.w3.org/2000/svg">
<path d="M9.5 0.46875C7.81268 0.46875 6.16325 0.969099 4.7603 1.90652C3.35734 2.84395 2.26387 4.17635 1.61816 5.73523C0.972446 7.29411 0.803499 9.00946 1.13268 10.6644C1.46186 12.3193 2.27438 13.8394 3.4675 15.0325C4.66062 16.2256 6.18074 17.0381 7.83564 17.3673C9.49054 17.6965 11.2059 17.5276 12.7648 16.8818C14.3237 16.2361 15.6561 15.1427 16.5935 13.7397C17.5309 12.3368 18.0313 10.6873 18.0313 9C18.0289 6.7381 17.1293 4.56954 15.5299 2.97013C13.9305 1.37073 11.7619 0.471139 9.5 0.46875ZM13.2456 7.49555L8.6518 12.0893C8.59085 12.1503 8.51848 12.1987 8.43881 12.2317C8.35914 12.2648 8.27375 12.2818 8.1875 12.2818C8.10126 12.2818 8.01587 12.2648 7.9362 12.2317C7.85653 12.1987 7.78415 12.1503 7.72321 12.0893L5.75446 10.1205C5.63132 9.99741 5.56214 9.83039 5.56214 9.65625C5.56214 9.48211 5.63132 9.31509 5.75446 9.19195C5.8776 9.06881 6.04461 8.99963 6.21875 8.99963C6.3929 8.99963 6.55991 9.06881 6.68305 9.19195L8.1875 10.6972L12.317 6.56695C12.3779 6.50598 12.4503 6.45761 12.53 6.42462C12.6096 6.39162 12.695 6.37464 12.7813 6.37464C12.8675 6.37464 12.9529 6.39162 13.0325 6.42462C13.1122 6.45761 13.1846 6.50598 13.2456 6.56695C13.3065 6.62793 13.3549 6.70031 13.3879 6.77997C13.4209 6.85964 13.4379 6.94502 13.4379 7.03125C13.4379 7.11748 13.4209 7.20286 13.3879 7.28253C13.3549 7.36219 13.3065 7.43457 13.2456 7.49555Z" fill="#34D399"/>
</svg>
