<svg width="21" height="22" viewBox="0 0 21 22" fill="none" xmlns="http://www.w3.org/2000/svg">
<path d="M10.5 2.46875C8.81268 2.46875 7.16325 2.9691 5.7603 3.90652C4.35734 4.84395 3.26387 6.17635 2.61816 7.73523C1.97245 9.29411 1.8035 11.0095 2.13268 12.6644C2.46186 14.3193 3.27438 15.8394 4.4675 17.0325C5.66062 18.2256 7.18074 19.0381 8.83564 19.3673C10.4905 19.6965 12.2059 19.5276 13.7648 18.8818C15.3237 18.2361 16.6561 17.1427 17.5935 15.7397C18.5309 14.3368 19.0313 12.6873 19.0313 11C19.0289 8.7381 18.1293 6.56954 16.5299 4.97013C14.9305 3.37073 12.7619 2.47114 10.5 2.46875ZM10.1719 6.40625C10.3666 6.40625 10.5569 6.46398 10.7188 6.57215C10.8806 6.68031 11.0068 6.83405 11.0813 7.01392C11.1558 7.19379 11.1753 7.39172 11.1373 7.58267C11.0994 7.77362 11.0056 7.94902 10.8679 8.08668C10.7303 8.22435 10.5549 8.3181 10.3639 8.35609C10.173 8.39407 9.97505 8.37457 9.79517 8.30007C9.6153 8.22556 9.46157 8.09939 9.3534 7.93751C9.24524 7.77563 9.1875 7.58532 9.1875 7.39062C9.1875 7.12955 9.29121 6.87917 9.47582 6.69457C9.66043 6.50996 9.91081 6.40625 10.1719 6.40625ZM11.1563 15.5938C10.8082 15.5938 10.4743 15.4555 10.2282 15.2093C9.98203 14.9632 9.84375 14.6293 9.84375 14.2812V11C9.66971 11 9.50279 10.9309 9.37971 10.8078C9.25664 10.6847 9.1875 10.5178 9.1875 10.3438C9.1875 10.1697 9.25664 10.0028 9.37971 9.87971C9.50279 9.75664 9.66971 9.6875 9.84375 9.6875C10.1919 9.6875 10.5257 9.82578 10.7718 10.0719C11.018 10.3181 11.1563 10.6519 11.1563 11V14.2812C11.3303 14.2812 11.4972 14.3504 11.6203 14.4735C11.7434 14.5965 11.8125 14.7635 11.8125 14.9375C11.8125 15.1115 11.7434 15.2785 11.6203 15.4015C11.4972 15.5246 11.3303 15.5938 11.1563 15.5938Z" fill="#6366F1"/>
</svg>
