<svg width="21" height="24" viewBox="0 0 21 24" fill="none" xmlns="http://www.w3.org/2000/svg">
<path d="M20.7301 6.73154L14.2685 0.27C14.1827 0.184307 14.0809 0.116356 13.9689 0.0700282C13.8568 0.0237007 13.7367 -9.50639e-05 13.6155 2.85414e-07H2.53854C2.04891 2.85414e-07 1.57933 0.194505 1.23311 0.540726C0.886888 0.886947 0.692383 1.35652 0.692383 1.84615V22.1538C0.692383 22.6435 0.886888 23.1131 1.23311 23.4593C1.57933 23.8055 2.04891 24 2.53854 24H19.1539C19.6436 24 20.1131 23.8055 20.4593 23.4593C20.8056 23.1131 21.0001 22.6435 21.0001 22.1538V7.38462C21.0002 7.26336 20.9764 7.14327 20.93 7.03122C20.8837 6.91916 20.8158 6.81733 20.7301 6.73154ZM14.5385 3.15115L17.8489 6.46154H14.5385V3.15115ZM19.1539 22.1538H2.53854V1.84615H12.6924V7.38462C12.6924 7.62943 12.7896 7.86422 12.9627 8.03733C13.1359 8.21044 13.3706 8.30769 13.6155 8.30769H19.1539V22.1538ZM14.5385 14.7692C14.5385 15.014 14.4413 15.2488 14.2682 15.4219C14.0951 15.5951 13.8603 15.6923 13.6155 15.6923H11.7693V17.5385C11.7693 17.7833 11.6721 18.0181 11.4989 18.1912C11.3258 18.3643 11.091 18.4615 10.8462 18.4615C10.6014 18.4615 10.3666 18.3643 10.1935 18.1912C10.0204 18.0181 9.92315 17.7833 9.92315 17.5385V15.6923H8.077C7.83218 15.6923 7.59739 15.5951 7.42428 15.4219C7.25117 15.2488 7.15392 15.014 7.15392 14.7692C7.15392 14.5244 7.25117 14.2896 7.42428 14.1165C7.59739 13.9434 7.83218 13.8462 8.077 13.8462H9.92315V12C9.92315 11.7552 10.0204 11.5204 10.1935 11.3473C10.3666 11.1742 10.6014 11.0769 10.8462 11.0769C11.091 11.0769 11.3258 11.1742 11.4989 11.3473C11.6721 11.5204 11.7693 11.7552 11.7693 12V13.8462H13.6155C13.8603 13.8462 14.0951 13.9434 14.2682 14.1165C14.4413 14.2896 14.5385 14.5244 14.5385 14.7692Z" fill="#FAFAFA"/>
</svg>
