<svg width="6" height="12" viewBox="0 0 6 12" fill="none" xmlns="http://www.w3.org/2000/svg">
<path d="M5.14652 11.3427L0.146521 6.34269C0.100033 6.29625 0.0631535 6.24111 0.0379914 6.18041C0.0128293 6.11971 -0.000121236 6.05465 -0.000121236 5.98894C-0.000121236 5.92323 0.0128293 5.85817 0.0379914 5.79747C0.0631535 5.73677 0.100033 5.68163 0.146521 5.63519L5.14652 0.635191C5.24034 0.54137 5.36759 0.488663 5.50027 0.488663C5.63295 0.488663 5.7602 0.54137 5.85402 0.635191C5.94784 0.729011 6.00055 0.856259 6.00055 0.988941C6.00055 1.12162 5.94784 1.24887 5.85402 1.34269L1.20715 5.98894L5.85402 10.6352C5.90048 10.6816 5.93733 10.7368 5.96247 10.7975C5.98761 10.8582 6.00055 10.9232 6.00055 10.9889C6.00055 11.0546 5.98761 11.1197 5.96247 11.1804C5.93733 11.2411 5.90048 11.2962 5.85402 11.3427C5.80757 11.3891 5.75242 11.426 5.69172 11.4511C5.63102 11.4763 5.56597 11.4892 5.50027 11.4892C5.43457 11.4892 5.36952 11.4763 5.30882 11.4511C5.24813 11.426 5.19298 11.3891 5.14652 11.3427Z" fill="#EEF2FF"/>
</svg>
  