<svg width="11" height="17" viewBox="0 0 11 17" fill="none" xmlns="http://www.w3.org/2000/svg">
<path d="M10.2448 15.6126C10.326 15.6838 10.3905 15.7682 10.4345 15.8611C10.4785 15.954 10.5012 16.0536 10.5012 16.1542C10.5012 16.2547 10.4785 16.3543 10.4345 16.4473C10.3905 16.5402 10.326 16.6246 10.2448 16.6957C10.1635 16.7668 10.0669 16.8232 9.96072 16.8617C9.8545 16.9002 9.74066 16.92 9.62569 16.92C9.51072 16.92 9.39687 16.9002 9.29065 16.8617C9.18443 16.8232 9.08792 16.7668 9.00663 16.6957L0.256626 9.04155C0.175271 8.97046 0.110733 8.88604 0.0666988 8.79313C0.022665 8.7002 0 8.6006 0 8.50002C0 8.39943 0.022665 8.29983 0.0666988 8.20691C0.110733 8.11399 0.175271 8.02957 0.256626 7.95848L9.00663 0.304327C9.17081 0.160704 9.39349 0.0800171 9.62569 0.0800171C9.85788 0.0800171 10.0806 0.160704 10.2448 0.304327C10.4089 0.44795 10.5012 0.642745 10.5012 0.845858C10.5012 1.04897 10.4089 1.24377 10.2448 1.38739L2.11272 8.50002L10.2448 15.6126Z" fill="#1C1917"/>
</svg>
