<svg width="90" height="32" viewBox="0 0 90 32" fill="none" xmlns="http://www.w3.org/2000/svg">
<path d="M15.3436 5.07811C15.3186 5.08436 15.1718 5.10624 15.0155 5.12499C14.7343 5.16249 14.5124 5.21249 14.2499 5.30311C14.0499 5.37186 13.4405 5.66874 13.3249 5.75624C12.7686 6.16561 12.5843 6.33749 12.2811 6.73124C11.953 7.15936 11.4686 7.99686 11.4686 8.13749C11.4686 8.18436 11.5343 8.21874 11.6218 8.21874C11.6499 8.21874 11.8436 8.27499 12.0499 8.34374C12.253 8.41561 12.4686 8.48436 12.5249 8.50311C12.578 8.51874 12.6249 8.54374 12.6249 8.55936C12.6249 8.57186 12.6436 8.58436 12.6655 8.58436C12.6843 8.58436 12.7936 8.62811 12.9061 8.67811C13.4749 8.94061 13.5936 8.97186 13.5936 8.86249C13.5936 8.79999 13.9561 8.32499 14.153 8.12811C14.3718 7.90936 14.6249 7.73749 14.8499 7.64999C15.3749 7.44686 16.0436 7.49061 16.5093 7.75624C16.5905 7.80624 16.6686 7.84374 16.6811 7.84374C16.7311 7.84374 17.1624 8.29374 17.278 8.46249C17.5749 8.89999 17.7061 9.23124 17.8436 9.87499C17.8968 10.1281 17.9655 10.9344 17.9655 11.3125C17.9655 11.6937 17.8999 12.3812 17.8311 12.7187C17.7249 13.2312 17.7093 13.3062 17.653 13.5594C17.6218 13.7031 17.5843 13.8344 17.5655 13.8531C17.5311 13.8875 17.4436 13.7281 17.3468 13.4406C17.3093 13.3312 17.2499 13.1844 17.2155 13.1125C17.1155 12.9156 16.8124 12.4344 16.7124 12.3187C16.6655 12.2625 16.6249 12.2031 16.6249 12.1844C16.6249 12.1 15.353 10.875 15.2624 10.875C15.2561 10.875 15.2093 10.8406 15.1624 10.7969C15.1155 10.7531 15.0655 10.7187 15.053 10.7187C15.0374 10.7187 14.9468 10.6562 14.8499 10.5844C14.653 10.4312 14.1999 10.1406 14.0624 10.075C14.0374 10.0625 13.9593 10.0156 13.8905 9.97186C13.7468 9.88124 13.3686 9.68749 13.3374 9.68749C13.3249 9.68749 13.228 9.64686 13.1186 9.59686C13.0093 9.54999 12.8655 9.48749 12.7968 9.45936C12.728 9.43436 12.6155 9.39061 12.5468 9.36561C12.1968 9.23436 11.8843 9.12499 11.8499 9.12499C11.828 9.12499 11.6624 9.08124 11.4749 9.03124C10.5093 8.75624 10.428 8.74374 9.53739 8.74374L8.73426 8.74061L8.33114 8.85311C8.11239 8.91561 7.91551 8.97811 7.89364 8.99374C7.87489 9.00624 7.80301 9.03749 7.73426 9.05936C7.54364 9.12499 7.27489 9.25311 7.16864 9.33436C7.11551 9.37499 7.06239 9.40624 7.04989 9.40624C6.98426 9.40624 6.59676 9.72186 6.40301 9.93436C5.95926 10.4125 5.62489 11.0781 5.43426 11.8594C5.38426 12.075 5.36239 13.0594 5.40301 13.3125C5.47801 13.775 5.49989 13.8719 5.60301 14.1594C5.80926 14.7344 6.09051 15.225 6.50614 15.7469C6.81864 16.1375 6.78114 16.1312 7.10926 15.8219C7.26551 15.6781 7.42489 15.5344 7.46864 15.5062C7.51239 15.4781 7.72801 15.3094 7.94676 15.1312C8.16864 14.95 8.41864 14.7594 8.50301 14.7031L8.65926 14.6L8.44676 14.3469C8.05614 13.8812 7.97176 13.7406 7.84051 13.3281C7.76239 13.075 7.75614 12.475 7.83426 12.2406C7.98739 11.7656 8.30614 11.4437 8.78739 11.2812C8.98426 11.2156 9.03739 11.2125 9.65301 11.225C10.1186 11.2312 10.3218 11.2469 10.3499 11.275C10.3686 11.2937 10.428 11.3125 10.4749 11.3125C10.5655 11.3125 11.028 11.4187 11.1405 11.4687C11.1749 11.4812 11.2936 11.525 11.4061 11.5625C11.5186 11.6 11.6249 11.6437 11.6405 11.6562C11.6593 11.6687 11.7155 11.6875 11.7655 11.7C11.8874 11.7281 12.9374 12.2469 13.1405 12.3781C13.2843 12.4719 13.6343 12.7031 13.7936 12.8125C13.9093 12.8937 14.3593 13.2312 14.3749 13.25C14.3843 13.2594 14.5374 13.3937 14.7186 13.5437C14.8999 13.6969 15.053 13.8344 15.0593 13.85C15.0624 13.8656 15.0436 13.8969 15.0124 13.9187C14.9686 13.9531 14.7936 13.9562 14.2061 13.9437C13.5936 13.9312 13.403 13.9406 13.1843 13.9812C13.0374 14.0094 12.853 14.0312 12.7718 14.0312C12.6936 14.0312 12.5905 14.0469 12.5405 14.0656C12.4936 14.0844 12.3686 14.1094 12.2655 14.125C11.9968 14.1656 11.6718 14.2344 11.453 14.2969C11.3499 14.325 11.2249 14.3594 11.1718 14.375C11.0311 14.4094 10.7155 14.5187 10.4436 14.6281C9.93739 14.8281 8.77176 15.4781 8.50926 15.7094C8.44364 15.7656 8.37801 15.8125 8.36239 15.8125C8.34676 15.8125 8.28114 15.8594 8.21864 15.9125C8.15301 15.9687 8.03426 16.0625 7.95614 16.1219C7.67176 16.3281 6.77176 17.2625 6.55926 17.5687C5.99051 18.3844 5.81239 18.7437 5.53114 19.6437C5.39051 20.0875 5.39051 21.2969 5.53114 21.7344C5.87176 22.7937 6.28426 23.35 7.20301 23.9875C7.48739 24.1844 8.18426 24.4625 8.57801 24.5344C8.99364 24.6125 9.30301 24.6312 9.87489 24.6156C10.5218 24.6 10.6093 24.5844 10.578 24.5031C10.5686 24.4781 10.5311 24.35 10.4936 24.2187C10.3343 23.6312 10.253 23.2656 10.2186 23.0094C10.203 22.8937 10.1749 22.6687 10.153 22.5094L10.1155 22.2219L9.56551 22.2094C8.98114 22.2 8.93114 22.1906 8.64676 22.0219C8.35301 21.8469 7.96864 21.3969 7.96864 21.225C7.96864 21.1969 7.94676 21.1312 7.92176 21.0812C7.85614 20.9562 7.85614 20.3219 7.92176 20.1656C7.94676 20.1062 7.96864 20.0312 7.96864 20C7.96864 19.9687 7.99051 19.9031 8.01551 19.8562C8.04051 19.8062 8.06239 19.7437 8.06239 19.7187C8.06239 19.6906 8.07801 19.6531 8.09676 19.6344C8.11551 19.6156 8.14676 19.5719 8.16864 19.5375C8.43426 19.0719 9.10926 18.3656 9.64364 17.9844C10.2811 17.5312 10.7249 17.2844 11.3499 17.0344C12.053 16.7531 12.628 16.5937 12.703 16.6562C12.7436 16.6906 12.728 16.8437 12.6874 16.8437C12.6749 16.8437 12.6093 16.925 12.5436 17.0219C12.4749 17.1219 12.3249 17.3437 12.203 17.5187C12.0843 17.6906 11.9655 17.8656 11.9405 17.9094C11.7093 18.3 11.628 18.4625 11.4811 18.8219C11.3874 19.0469 11.3124 19.2562 11.3124 19.2844C11.3124 19.3125 11.2905 19.3875 11.2655 19.4469C11.2405 19.5094 11.2186 19.6 11.2186 19.65C11.2186 19.6969 11.2061 19.75 11.1874 19.7687C11.1593 19.7969 11.1343 19.9156 11.0468 20.4844C11.0218 20.6375 10.9874 20.85 10.9718 20.9531C10.928 21.1875 10.9311 22.5875 10.9718 22.7969C10.9905 22.8812 11.0155 23.0375 11.028 23.1406C11.0624 23.3687 11.1124 23.5812 11.2843 24.1875C11.5936 25.2906 12.3218 26.4812 13.0686 27.1C13.6311 27.5719 14.103 27.8031 14.7811 27.9469C15.0499 28.0062 15.7468 28.0719 15.8155 28.05C15.8405 28.0406 16.0155 28.0187 16.203 28.0031C16.6593 27.9625 17.0186 27.8719 17.353 27.7125C17.4499 27.6625 17.5436 27.625 17.5593 27.625C17.5718 27.625 17.7311 27.5281 17.9093 27.4094C18.5561 26.9812 19.1343 26.3375 19.4686 25.6719C19.528 25.55 19.5843 25.4469 19.5936 25.4375C19.6311 25.4 19.7186 25.25 19.7186 25.2187C19.7186 25.2 19.6811 25.1719 19.6343 25.1531C19.5843 25.1375 19.5061 25.1031 19.453 25.0812C19.403 25.0562 19.2811 25.0125 19.1874 24.9844C19.0936 24.9531 18.9874 24.9094 18.953 24.8844C18.9186 24.8625 18.8655 24.8437 18.8374 24.8437C18.8061 24.8437 18.7561 24.8312 18.7249 24.8156C18.6968 24.8 18.6093 24.7594 18.5311 24.725C18.453 24.6906 18.2374 24.5875 18.0499 24.4969C17.678 24.3187 17.6499 24.3187 17.5593 24.4937C17.5311 24.5469 17.4718 24.6406 17.4249 24.7C17.3811 24.7594 17.3436 24.8156 17.3436 24.825C17.3436 24.85 17.2218 24.9969 17.103 25.1125C16.978 25.2375 16.5968 25.4687 16.3999 25.5437C16.2186 25.6094 15.6999 25.6656 15.4843 25.6406C15.003 25.5812 14.4593 25.2406 14.1686 24.8125C13.9811 24.5375 13.9405 24.4719 13.8343 24.2719C13.7686 24.1562 13.7186 24.0406 13.7186 24.0187C13.7186 23.9937 13.6999 23.9062 13.6749 23.825C13.6499 23.7406 13.6155 23.5937 13.5968 23.5C13.578 23.4062 13.5405 23.2281 13.5155 23.1094C13.4874 22.9875 13.453 22.75 13.4374 22.5781C13.4218 22.4062 13.3936 22.1437 13.378 21.9969C13.3593 21.8187 13.3593 21.5906 13.3811 21.3406C13.3968 21.1281 13.4218 20.8062 13.4374 20.625C13.478 20.0656 13.5843 19.5406 13.6718 19.4687C13.7124 19.4344 13.7311 19.4562 13.7968 19.6062C13.8405 19.7031 13.8749 19.8031 13.8749 19.8312C13.8749 19.9875 14.3249 20.7531 14.6811 21.2C14.9405 21.5281 15.4843 22.075 15.7468 22.275C16.0686 22.5219 16.4686 22.8125 16.4874 22.8125C16.5124 22.8125 16.703 22.95 16.7124 22.975C16.7186 22.9906 16.7374 23 16.7561 23C16.7718 23 16.8249 23.025 16.8686 23.0594C16.9155 23.0906 17.0718 23.1781 17.2186 23.2531C17.3655 23.325 17.5061 23.4031 17.5311 23.4219C17.5968 23.4719 18.5874 23.9094 18.703 23.9406C18.7561 23.9531 18.9374 24.0156 19.1093 24.0781C19.8843 24.3625 20.4343 24.4844 21.1561 24.5375C21.6968 24.575 22.378 24.5437 22.7061 24.4656C24.028 24.1562 24.9968 23.4281 25.5186 22.3562C25.6561 22.0719 25.703 21.9437 25.8124 21.5469C25.8655 21.3625 25.8749 21.2219 25.8749 20.6219C25.8749 19.9 25.8718 19.8781 25.7343 19.4344C25.7093 19.3531 25.6874 19.2719 25.6874 19.25C25.6874 19.2062 25.4186 18.65 25.2936 18.4406C25.228 18.325 25.0811 18.1187 24.9749 17.9844C24.9624 17.9656 24.9155 17.8969 24.8749 17.8281C24.8343 17.7594 24.7905 17.6969 24.7811 17.6875C24.7405 17.6531 24.5343 17.3875 24.528 17.3594C24.5124 17.3156 24.428 17.2187 24.403 17.2187C24.3936 17.2187 24.3436 17.2781 24.2936 17.35C24.2436 17.4219 24.1468 17.5312 24.0811 17.5937C24.0124 17.6531 23.9061 17.7531 23.8468 17.8125C23.7843 17.875 23.6374 18.0031 23.5155 18.0969C23.3968 18.1937 23.278 18.2937 23.253 18.3219C23.2311 18.3531 23.1936 18.375 23.1718 18.375C23.153 18.375 23.053 18.4469 22.953 18.5344C22.853 18.6187 22.7405 18.7125 22.6999 18.7406C22.6593 18.7656 22.6249 18.8 22.6249 18.8125C22.6249 18.8281 22.6936 18.9062 22.778 18.9844C22.8655 19.0656 22.9561 19.1781 22.9843 19.2375C23.0093 19.2937 23.0655 19.3812 23.103 19.4281C23.1936 19.5406 23.3218 19.7844 23.403 20C23.4561 20.1406 23.4686 20.2437 23.4686 20.5687C23.4686 20.7875 23.4561 20.9719 23.4405 20.9844C23.4249 20.9937 23.3999 21.0469 23.3905 21.1031C23.3218 21.4125 22.9655 21.8125 22.628 21.9562C22.2093 22.1344 21.428 22.1375 20.703 21.9687C20.1936 21.85 19.8999 21.7687 19.7186 21.7031C19.4218 21.5937 19.2811 21.5406 19.0218 21.425C18.9561 21.3969 18.8874 21.375 18.8686 21.375C18.8186 21.375 18.5718 21.2312 17.8874 20.8C17.4093 20.5 16.9218 20.1375 16.4999 19.7687C16.2061 19.5125 16.1249 19.4344 16.1249 19.4062C16.1249 19.3562 16.303 19.3437 17.203 19.3406C17.7186 19.3406 18.2593 19.3281 18.4061 19.3125C19.0249 19.2469 19.3124 19.2 19.6874 19.0937C19.7468 19.075 19.9155 19.0281 20.0624 18.9875C20.2093 18.9469 20.4186 18.8812 20.5311 18.8437C20.9249 18.7125 21.8999 18.2562 22.0311 18.1406C22.0561 18.1187 22.128 18.0781 22.1874 18.0469C22.3405 17.9687 22.5905 17.8031 22.928 17.5562C23.2561 17.3156 24.2186 16.3906 24.4905 16.0531C24.5905 15.9281 24.6936 15.8031 24.7249 15.7719C24.9186 15.5562 25.3968 14.7281 25.5155 14.4062C25.5436 14.3281 25.5936 14.2031 25.6249 14.125C25.6561 14.0469 25.7061 13.8937 25.7343 13.7812C25.7624 13.6687 25.7999 13.5281 25.8155 13.4687C25.878 13.2344 25.9186 12.4406 25.8811 12.0812C25.8624 11.8875 25.8343 11.6969 25.8186 11.6531C25.803 11.6125 25.7655 11.4937 25.7343 11.3906C25.7061 11.2875 25.653 11.1531 25.6218 11.0906C25.5874 11.0281 25.5624 10.9531 25.5624 10.9281C25.5624 10.9031 25.553 10.875 25.5405 10.8687C25.5249 10.8625 25.4874 10.8031 25.4561 10.7344C25.2124 10.2281 24.6374 9.61874 24.0968 9.29374C23.8343 9.13124 23.5374 8.97811 23.4218 8.94061C23.3718 8.92186 23.2436 8.87811 23.1405 8.84061C22.7311 8.69374 22.1968 8.62811 21.3874 8.62811C20.8093 8.62499 20.7905 8.63124 20.8405 8.83124C20.8593 8.89999 20.8874 9.02186 20.9061 9.10936C20.9249 9.19374 20.953 9.30624 20.9686 9.35936C20.9843 9.40936 21.0124 9.54686 21.028 9.66249C21.0436 9.77811 21.0655 9.88749 21.0749 9.90311C21.0843 9.91874 21.1093 10.1062 21.128 10.3187C21.1499 10.5281 21.1718 10.7812 21.1843 10.875L21.203 11.0437L21.5936 11.0469C22.0905 11.0531 22.3718 11.1187 22.678 11.3031C23.0749 11.5437 23.2843 11.8531 23.4093 12.3781C23.478 12.6656 23.478 12.6719 23.4249 12.9531C23.2905 13.6437 22.9343 14.2312 22.2436 14.8906C21.7718 15.3406 21.5186 15.5375 21.0624 15.8094C20.8811 15.9156 20.7124 16.0156 20.6874 16.0312C20.6218 16.0719 20.1655 16.2937 20.0155 16.3562C19.9468 16.3844 19.8655 16.4219 19.8374 16.4375C19.8061 16.4562 19.7624 16.4687 19.7374 16.4687C19.7124 16.4687 19.653 16.4844 19.603 16.5062C19.4874 16.5531 18.9436 16.6844 18.6343 16.7406C18.4593 16.7687 18.4686 16.6312 18.6499 16.4406C18.7593 16.3281 18.8999 16.1375 18.9811 15.9844C19.028 15.8969 19.0936 15.8 19.1218 15.7656C19.153 15.7312 19.1874 15.6812 19.1999 15.6562C19.2124 15.6312 19.2374 15.5812 19.2593 15.5469C19.3874 15.3344 19.5468 15.0406 19.553 14.9937C19.5561 14.9656 19.5874 14.8969 19.6218 14.8375C19.653 14.7812 19.7405 14.5781 19.8124 14.3906C19.8843 14.2 19.9624 14.0031 19.9843 13.9531C20.0061 13.9 20.0343 13.825 20.0436 13.7812C20.078 13.6156 20.1343 13.4187 20.1749 13.3187C20.1999 13.2625 20.2186 13.1781 20.2186 13.1344C20.2186 13.0906 20.2374 12.9812 20.2624 12.8937C20.4061 12.3812 20.4593 10.9344 20.3561 10.2719C20.253 9.57811 20.0811 8.84374 19.928 8.41561C19.8405 8.17811 19.5686 7.57186 19.5155 7.49999C19.4968 7.47499 19.4499 7.39061 19.4061 7.31249C19.2155 6.94999 18.5968 6.24999 18.1999 5.94374C17.7718 5.61249 17.2749 5.36561 16.7186 5.20936C16.3686 5.10936 15.5718 5.03436 15.3436 5.07811ZM15.9843 14.325C16.5905 14.4312 17.0749 14.7156 17.4436 15.1875C17.703 15.5187 17.8686 15.8781 17.9374 16.25C17.9561 16.3625 17.978 16.4812 17.9843 16.5156C18.003 16.6094 17.9093 17.2469 17.8499 17.4062C17.6343 18.0062 17.2093 18.4562 16.5624 18.7719C16.1905 18.95 16.1968 18.95 15.6874 18.9469C15.2718 18.9469 15.1718 18.9375 15.003 18.8781C14.6343 18.75 14.2968 18.55 14.0374 18.3C13.8905 18.1625 13.6249 17.7812 13.6249 17.7125C13.6249 17.6875 13.6061 17.6437 13.5811 17.6094C13.5374 17.5406 13.4686 17.3219 13.3874 16.9875C13.228 16.3156 13.5624 15.35 14.1186 14.8844C14.5124 14.55 14.9218 14.3594 15.3311 14.3156C15.6874 14.2781 15.7093 14.2781 15.9843 14.325Z" fill="#EEF2FF"/>
<path d="M15.5063 15.2219C15.2751 15.2469 15.1251 15.2937 14.8782 15.4156C14.747 15.4812 14.4532 15.8344 14.347 16.0531C14.2438 16.2594 14.2407 16.2781 14.2407 16.6406C14.2438 16.9781 14.2501 17.0344 14.3251 17.2C14.4563 17.4875 14.572 17.6281 14.8282 17.8094C15.1063 18.0062 15.622 18.1062 15.9845 18.0312C16.3782 17.9531 16.797 17.6312 17.0001 17.25C17.1063 17.0531 17.1095 17.0375 17.1095 16.6875C17.1095 16.2625 17.0782 16.1687 16.8188 15.8187C16.6595 15.6031 16.3407 15.3437 16.2376 15.3437C16.2188 15.3437 16.1876 15.3312 16.172 15.3187C16.1438 15.2937 15.9376 15.2312 15.8126 15.2062C15.7876 15.2 15.6501 15.2094 15.5063 15.2219Z" fill="#EEF2FF"/>
<path d="M44.4239 12.8087C44.4239 14.8403 43.9095 16.4011 42.8806 17.491C41.8605 18.5722 40.3825 19.1128 38.4468 19.1128H37.5575V26.0447H34V6.92321H38.8523C42.5667 6.92321 44.4239 8.88505 44.4239 12.8087ZM37.5575 16.0262H38.2376C39.1095 16.0262 39.7591 15.7864 40.1863 15.3068C40.6136 14.8273 40.8272 14.0425 40.8272 12.9526C40.8272 11.9499 40.631 11.2087 40.2387 10.7292C39.8463 10.2409 39.2403 9.99677 38.4207 9.99677H37.5575V16.0262Z" fill="#EEF2FF"/>
<path d="M57.4244 18.7335C57.4244 21.1226 56.9187 22.9842 55.9073 24.3182C54.8958 25.6436 53.5095 26.3062 51.7482 26.3062C50.6321 26.3062 49.6468 26.0011 48.7923 25.3907C47.9378 24.7804 47.2795 23.9041 46.8174 22.7618C46.3553 21.6109 46.1242 20.2681 46.1242 18.7335C46.1242 16.3706 46.6256 14.5264 47.6283 13.2011C48.631 11.8671 50.0217 11.2 51.8005 11.2C53.5182 11.2 54.8827 11.8801 55.8942 13.2403C56.9143 14.5918 57.4244 16.4229 57.4244 18.7335ZM49.6817 18.7335C49.6817 20.2507 49.8473 21.3973 50.1787 22.1733C50.51 22.9493 51.0419 23.3373 51.7743 23.3373C53.1694 23.3373 53.8669 21.8027 53.8669 18.7335C53.8669 17.2076 53.6969 16.0698 53.3569 15.3199C53.0255 14.5613 52.498 14.182 51.7743 14.182C51.0419 14.182 50.51 14.5613 50.1787 15.3199C49.8473 16.0698 49.6817 17.2076 49.6817 18.7335Z" fill="#EEF2FF"/>
<path d="M63.3492 26.0447H59.8702V5.69379H63.3492V26.0447Z" fill="#EEF2FF"/>
<path d="M68.6069 26.0447L64.801 11.4747H68.4107L70.268 19.9106C70.3464 20.303 70.438 20.8785 70.5426 21.637C70.656 22.3869 70.7257 22.9275 70.7519 23.2588H70.8042C70.8129 22.9973 70.8478 22.6223 70.9088 22.134C70.9786 21.6458 71.0483 21.1967 71.1181 20.7869C71.1878 20.3771 71.8592 17.273 73.1323 11.4747H76.742L72.923 26.0447H68.6069Z" fill="#EEF2FF"/>
<path d="M89.0232 18.7335C89.0232 21.1226 88.5175 22.9842 87.506 24.3182C86.4946 25.6436 85.1082 26.3062 83.3469 26.3062C82.2309 26.3062 81.2456 26.0011 80.3911 25.3907C79.5366 24.7804 78.8783 23.9041 78.4162 22.7618C77.954 21.6109 77.723 20.2681 77.723 18.7335C77.723 16.3706 78.2243 14.5264 79.2271 13.2011C80.2298 11.8671 81.6205 11.2 83.3992 11.2C85.1169 11.2 86.4815 11.8801 87.493 13.2403C88.5131 14.5918 89.0232 16.4229 89.0232 18.7335ZM81.2804 18.7335C81.2804 20.2507 81.4461 21.3973 81.7774 22.1733C82.1088 22.9493 82.6407 23.3373 83.3731 23.3373C84.7682 23.3373 85.4657 21.8027 85.4657 18.7335C85.4657 17.2076 85.2957 16.0698 84.9556 15.3199C84.6243 14.5613 84.0968 14.182 83.3731 14.182C82.6407 14.182 82.1088 14.5613 81.7774 15.3199C81.4461 16.0698 81.2804 17.2076 81.2804 18.7335Z" fill="#EEF2FF"/>
</svg>
 