<svg width="21" height="22" viewBox="0 0 21 22" fill="none" xmlns="http://www.w3.org/2000/svg">
<path d="M17.5268 7.74338L12.933 3.14963C12.8721 3.0887 12.7997 3.04039 12.72 3.00746C12.6403 2.97452 12.555 2.9576 12.4688 2.95767H4.59375C4.24565 2.95767 3.91181 3.09595 3.66567 3.34209C3.41953 3.58824 3.28125 3.92208 3.28125 4.27017V18.7077C3.28125 19.0558 3.41953 19.3896 3.66567 19.6357C3.91181 19.8819 4.24565 20.0202 4.59375 20.0202H16.4062C16.7543 20.0202 17.0882 19.8819 17.3343 19.6357C17.5805 19.3896 17.7188 19.0558 17.7188 18.7077V8.20767C17.7188 8.12147 17.7019 8.03609 17.669 7.95643C17.636 7.87676 17.5877 7.80437 17.5268 7.74338ZM13.125 5.19795L15.4785 7.55142H13.125V5.19795ZM16.4062 18.7077H4.59375V4.27017H11.8125V8.20767C11.8125 8.38172 11.8816 8.54864 12.0047 8.67171C12.1278 8.79478 12.2947 8.86392 12.4688 8.86392H16.4062V18.7077ZM13.125 13.4577C13.125 13.6317 13.0559 13.7986 12.9328 13.9217C12.8097 14.0448 12.6428 14.1139 12.4688 14.1139H11.1562V15.4264C11.1562 15.6005 11.0871 15.7674 10.964 15.8905C10.841 16.0135 10.674 16.0827 10.5 16.0827C10.326 16.0827 10.159 16.0135 10.036 15.8905C9.91289 15.7674 9.84375 15.6005 9.84375 15.4264V14.1139H8.53125C8.3572 14.1139 8.19028 14.0448 8.06721 13.9217C7.94414 13.7986 7.875 13.6317 7.875 13.4577C7.875 13.2836 7.94414 13.1167 8.06721 12.9936C8.19028 12.8706 8.3572 12.8014 8.53125 12.8014H9.84375V11.4889C9.84375 11.3149 9.91289 11.148 10.036 11.0249C10.159 10.9018 10.326 10.8327 10.5 10.8327C10.674 10.8327 10.841 10.9018 10.964 11.0249C11.0871 11.148 11.1562 11.3149 11.1562 11.4889V12.8014H12.4688C12.6428 12.8014 12.8097 12.8706 12.9328 12.9936C13.0559 13.1167 13.125 13.2836 13.125 13.4577Z" fill="#EEF2FF"/>
</svg>
 